<svg width="43" height="43" viewBox="0 0 43 43" fill="none" xmlns="http://www.w3.org/2000/svg">
<path d="M22.2258 37.7146C24.0584 37.7146 25.5427 36.2303 25.5427 34.3977H18.9089C18.9089 36.2303 20.3932 37.7146 22.2258 37.7146ZM32.1764 27.7639V19.4717C32.1764 14.372 29.4649 10.1181 24.7135 8.9904V7.86266C24.7135 6.48615 23.6023 5.375 22.2258 5.375C20.8493 5.375 19.7381 6.48615 19.7381 7.86266V8.9904C14.9867 10.1181 12.2752 14.372 12.2752 19.4717V27.7639L8.95828 31.0808V32.7393H35.4933V31.0808L32.1764 27.7639Z" fill="#9B9FAB"/>
<circle cx="30.4583" cy="12.5415" r="5.375" fill="white"/>
<circle cx="31.844" cy="12.2859" r="4.60714" fill="#FF3D3D"/>
</svg>
